<?xml version="1.0" encoding="UTF-8"?>
<svg width="52px" height="48px" viewBox="0 0 52 48" version="1.1" xmlns="http://www.w3.org/2000/svg" xmlns:xlink="http://www.w3.org/1999/xlink">
    <!-- Generator: Sketch 52.6 (67491) - http://www.bohemiancoding.com/sketch -->
    <title>headphones</title>
    <desc>Created with Sketch.</desc>
    <g id="Page-1" stroke="none" stroke-width="1" fill="none" fill-rule="evenodd">
        <g id="Vidéo-intro" transform="translate(-694.000000, -418.000000)" fill="#FFFFFF" fill-rule="nonzero">
            <g id="headphones" transform="translate(694.000000, 418.000000)">
                <path d="M46.3677817,26.5152199 L45.4836045,26.5152199 L45.4836045,19.4571385 C45.4836045,8.73408063 36.7432425,0 26.0129727,0 C15.2827029,0 6.54234082,8.73408063 6.54234082,19.4571385 L6.54234082,26.5152199 L5.65775639,26.5152199 C2.53442401,26.5172548 0.00203633095,29.0471264 0,32.1691736 L0,42.3334295 C0.00203633095,45.4546627 2.53442401,47.9849413 5.65775639,47.9873833 L10.7437096,47.9873833 C11.4609072,47.9853483 12.0420775,47.4045686 12.0441138,46.687446 L12.0441138,27.8147502 C12.0420775,27.0976276 11.4609072,26.5172548 10.7437096,26.5152199 L9.13052411,26.5152199 L9.13052411,19.4571385 C9.13052411,10.1638488 16.6999928,2.59946755 25.9995329,2.59946755 C35.2994801,2.59946755 42.8693561,10.1638488 42.8693561,19.4571385 L42.8693561,26.5152199 L41.2561706,26.5152199 C40.5389731,26.5172548 39.9578027,27.0976276 39.9557664,27.8147502 L39.9557664,46.7000628 C39.9578027,47.4171853 40.5389731,47.9979651 41.2561706,48 L46.3421238,48 C49.4654562,47.9979651 51.9974366,45.4680934 51.9998802,42.3460463 L51.9998802,32.1817905 C52.0096547,30.6824264 51.4207462,29.2416694 50.3634806,28.1777883 C49.3062147,27.1143143 47.8681542,26.5156269 46.3677817,26.5152199 Z M9.442898,45.4005326 L5.65775639,45.4005326 C3.97085557,45.3980905 2.60365939,44.0322203 2.60121584,42.3460463 L2.60121584,32.1817905 C2.60365939,30.4964304 3.97085557,29.1301532 5.65775639,29.1273042 L9.442898,29.1273042 L9.442898,45.4005326 Z M49.4243223,42.3460463 C49.4218787,44.0322203 48.0546825,45.3980905 46.3677817,45.4005326 L42.5830473,45.4005326 L42.5830473,29.1146874 L46.3677817,29.1146874 C48.0546825,29.1171294 49.4218787,30.4829995 49.4243223,32.1691736 L49.4243223,42.3460463 Z" id="Shape"></path>
            </g>
        </g>
    </g>
</svg>