<?xml version="1.0" encoding="UTF-8"?>
<svg width="32px" height="81px" viewBox="0 0 32 81" version="1.1" xmlns="http://www.w3.org/2000/svg" xmlns:xlink="http://www.w3.org/1999/xlink">
    <!-- Generator: Sketch 52.6 (67491) - http://www.bohemiancoding.com/sketch -->
    <title>noun_scrolling_2058570</title>
    <desc>Created with Sketch.</desc>
    <g id="Page-1" stroke="none" stroke-width="1" fill="none" fill-rule="evenodd">
        <g id="Problématique-" transform="translate(-705.000000, -886.000000)" fill="#F5FBEF" fill-rule="nonzero">
            <g id="noun_scrolling_2058570" transform="translate(705.000000, 886.000000)">
                <g id="Group">
                    <g id="Shape">
                        <g>
                            <g>
                                <g>
                                    <path d="M15.6862745,29.0610687 C16.3789803,29.0610687 16.9411765,29.6138473 16.9411765,30.29771 L16.9411765,37.7175574 C16.9411765,38.4014199 16.3789803,38.9541985 15.6862745,38.9541985 C14.9935686,38.9541985 14.4313725,38.4014199 14.4313725,37.7175574 L14.4313725,30.29771 C14.4313725,29.6138473 14.9935686,29.0610687 15.6862745,29.0610687 Z M17.2026144,76.9122137 L21.1712418,72.9446565 C21.4117648,72.7041984 21.6522876,72.5839694 22.013072,72.5839694 C22.3738562,72.5839694 22.6143792,72.7041984 22.854902,72.9446565 C23.3359477,73.4267747 23.3359477,74.1469466 22.854902,74.6290649 L16.84183,80.6405152 C16.6013072,80.8809732 16.3006536,81 16,81 C15.6993464,81 15.3986928,80.8809732 15.15817,80.6405152 L9.14509804,74.6290649 C8.66405229,74.1469466 8.66405229,73.4267747 9.14509804,72.9446565 C9.38562092,72.7041984 9.62614379,72.5839694 9.9869281,72.5839694 C10.3477124,72.5839694 10.5882353,72.7041984 10.8287582,72.9446565 L14.7973856,76.9122137 L14.7973856,60.5610687 C14.7973856,59.840897 15.2784314,59.3587786 16,59.3587786 C16.7215687,59.3587786 17.2026144,59.840897 17.2026144,60.5610687 L17.2026144,76.9122137 Z M11.5002519,65.6612099 C12.1279411,65.8906137 12.4565549,66.5812524 12.2411713,67.1990644 C12.0208647,67.8241592 11.3168681,68.1652303 10.6756405,67.950392 C9.27872418,67.4636676 6.01350927,66.1175899 3.38336819,62.8015532 C0.187076015,58.7681748 0.00246152651,54.4398489 0,53.0622128 L0,30.0004648 C0.00246152651,28.8024677 0.148922354,23.6366361 4.24736399,19.2706831 C8.87134154,14.3476068 14.972235,14.2250154 15.9999223,14.221374 C17.0189944,14.221374 23.1555799,14.324545 27.7844805,19.2706831 C31.8743068,23.6402775 32.0010754,28.8085365 31.9998447,30.0004648 L31.9998447,53.0622128 C32.0059984,54.4204284 31.8435377,58.4841513 28.9278595,62.4095035 C26.2041804,66.0763214 22.6583515,67.4903707 21.3266657,67.9491781 C20.6891303,68.166444 19.9826722,67.830228 19.7599041,67.2014919 C19.5383666,66.5715421 19.8817496,65.8748346 20.519285,65.6551411 C21.6983562,65.2363882 24.4921887,64.0650942 26.7235625,61.1981549 C29.3524729,57.8226432 29.5297028,54.2432171 29.5383181,53.0622128 L29.5383181,30.0004648 C29.5383181,29.0306576 29.4337032,24.5372581 25.83249,20.795186 C21.9235859,16.7338908 16.8688412,16.6489265 15.9999223,16.6489265 C15.159311,16.6513539 9.76241414,16.7605939 5.82027944,21.1702428 C2.26829667,25.1429324 2.41229598,29.7953366 2.4615265,30.7432959 L2.4615265,53.0622128 C2.47383414,54.249286 2.66460244,57.7194721 5.18766711,61.0476465 C7.45227151,64.0359637 10.3347191,65.2436709 11.5002519,65.6612099 Z M13.1764706,2.47328244 C13.1764706,1.10803054 14.3008628,0 15.6862746,0 C17.0716863,0 18.1960784,1.10803054 18.1960784,2.47328244 C18.1960784,3.84100763 17.0716863,4.94656489 15.6862746,4.94656489 C14.3008628,4.94656489 13.1764706,3.84100763 13.1764706,2.47328244 Z M13.1764706,9.89312977 C13.1764706,8.52540458 14.3008628,7.41984733 15.6862746,7.41984733 C17.0716863,7.41984733 18.1960784,8.52540458 18.1960784,9.89312977 C18.1960784,11.2583817 17.0716863,12.3664122 15.6862746,12.3664122 C14.3008628,12.3664122 13.1764706,11.2583817 13.1764706,9.89312977 Z"></path>
                                </g>
                            </g>
                        </g>
                    </g>
                </g>
            </g>
        </g>
    </g>
</svg>